<svg width="56" height="39" viewBox="0 0 56 39" fill="none" xmlns="http://www.w3.org/2000/svg">
<path d="M11.4003 37.5721C9.7103 37.4559 8.16023 36.9997 6.75007 36.2036C5.37532 35.3766 4.20903 34.1811 3.25119 32.617C2.32877 31.0221 1.64794 29.0609 1.2087 26.7335C0.771746 24.3729 0.662638 21.602 0.881382 18.4209C1.10013 15.2398 1.58634 12.5265 2.34002 10.2811C3.09598 8.00258 4.03885 6.15304 5.16862 4.73253C6.33153 3.3143 7.64935 2.30623 9.12208 1.70834C10.6279 1.11273 12.2259 0.873028 13.9158 0.989236C15.6058 1.10544 17.1393 1.56047 18.5163 2.35432C19.8933 3.14817 21.0442 4.32599 21.9689 5.88777C22.8959 7.41642 23.5624 9.34333 23.9685 11.6685C24.4078 13.9959 24.518 16.7502 24.2993 19.9313C24.0805 23.1125 23.5932 25.8423 22.8372 28.1208C22.1167 30.3685 21.1904 32.2192 20.0583 33.6729C18.9263 35.1265 17.6227 36.1689 16.1477 36.7999C14.6727 37.4309 13.0902 37.6883 11.4003 37.5721ZM11.6206 33.642C12.7472 33.7195 13.7584 33.5393 14.6541 33.1015C15.5499 32.6637 16.3347 31.902 17.0086 30.8163C17.6826 29.7307 18.2313 28.2869 18.6549 26.4849C19.1138 24.652 19.4345 22.4101 19.6167 19.7592C19.799 17.1082 19.8037 14.8613 19.6308 13.0182C19.4602 11.1421 19.1154 9.62017 18.5964 8.45251C18.0774 7.28485 17.4042 6.42287 16.5768 5.86658C15.7495 5.31028 14.7725 4.9934 13.6458 4.91593C12.5192 4.83846 11.4914 5.01749 10.5625 5.45301C9.66681 5.89082 8.86541 6.6514 8.15834 7.73475C7.48441 8.82039 6.91796 10.2796 6.45899 12.1125C6.03544 13.9145 5.73252 16.141 5.55023 18.7919C5.36795 21.4428 5.36212 23.7064 5.53275 25.5826C5.73879 27.4279 6.10131 28.9343 6.6203 30.102C7.13928 31.2697 7.81247 32.1316 8.63984 32.6879C9.50035 33.2465 10.4939 33.5645 11.6206 33.642Z" fill="#21201F"/>
<path d="M35.3102 18.9905L36.4107 2.98552L44.8109 3.56314C48.5222 3.81834 51.3493 4.82843 53.2921 6.59339C55.268 8.36064 56.1432 10.8845 55.9177 14.1651C55.8014 15.855 55.403 17.2925 54.7222 18.4776C54.0746 19.6649 53.1766 20.6186 52.0285 21.3387C50.9157 22.0279 49.6 22.5201 48.0815 22.8152C46.5653 23.0771 44.896 23.1455 43.0734 23.0202L39.7432 22.7912L39.4527 27.0161L49.841 27.7304L49.6018 31.2098L39.2134 30.4954L38.6324 38.9453L33.9601 38.624L34.5412 30.1741L30.4654 29.8939L30.7046 26.4145L34.7804 26.6948L35.0709 22.4699L30.9951 22.1896L31.2344 18.7103L35.3102 18.9905ZM40.8062 7.3329L39.9825 19.3118L43.3127 19.5408C45.7317 19.7071 47.6049 19.3366 48.9325 18.429C50.2954 17.4907 51.0498 15.9611 51.1957 13.8404C51.3301 11.8853 50.8659 10.4051 49.8031 9.39982C48.7756 8.36366 47.0193 7.76014 44.534 7.58924L40.8062 7.3329Z" fill="#21201F"/>
</svg>
