<svg width="84" height="68" viewBox="0 0 84 68" fill="none" xmlns="http://www.w3.org/2000/svg">
<path d="M53.3275 67.5062C49.0392 67.5062 44.6817 64.5321 44.6817 58.8604C44.6817 55.3329 46.5838 52.4279 49.4888 51.0446L41.085 19.4008C36.4508 19.3316 32.5429 19.4354 28.9117 19.7121L28.635 16.2537C32.7158 15.9425 37.0733 15.8387 42.4338 15.9425L43.7479 15.9771L52.8088 50.2146C57.8579 49.9725 61.9388 53.7421 61.9388 58.8604C61.9733 63.8058 58.2383 67.5062 53.3275 67.5062ZM53.3275 53.6729C50.3188 53.6729 48.14 55.8516 48.14 58.8604C48.14 62.6991 50.9413 64.0479 53.3275 64.0479C56.3363 64.0479 58.515 61.8691 58.515 58.8604C58.515 55.8516 56.3363 53.6729 53.3275 53.6729ZM8.64583 67.5062C4.3575 67.5062 0 64.5321 0 58.8604C0 53.915 3.70042 50.2146 8.64583 50.2146C12.9687 50.2146 16.3579 53.085 17.1187 57.1312H27.0788C31.0558 57.1312 32.9233 56.3704 35.7937 53.6729C38.2492 51.3212 40.6008 48.8312 42.7796 46.2375L45.4425 48.4508C43.1946 51.1483 40.7392 53.7421 38.18 56.1629C34.6525 59.5175 31.955 60.5896 27.0788 60.5896H17.1533C16.3925 64.6358 13.0033 67.5062 8.64583 67.5062ZM8.64583 53.6729C5.63708 53.6729 3.45833 55.8516 3.45833 58.8604C3.45833 62.6991 6.25958 64.0479 8.64583 64.0479C11.6546 64.0479 13.8333 61.8691 13.8333 58.8604C13.8333 55.8516 11.6546 53.6729 8.64583 53.6729ZM52.3937 24.035H50.1458C48.9008 24.035 47.8633 23.0321 47.8633 21.7525C47.8633 20.5075 48.8662 19.5046 50.1458 19.5046H52.3937V24.035Z" fill="#21201F"/>
<path d="M67.6105 16.4158L57.1782 5.53254L58.9042 3.74031L69.3619 14.6236L67.6105 16.4158ZM58.9042 16.4158L57.1782 14.6236L67.6612 3.74031L69.3619 5.53254L58.9042 16.4158Z" fill="#21201F"/>
<path d="M74.3519 10.5975V7.79231H76.6871C77.2625 7.79231 77.7617 7.69707 78.1847 7.50659C78.6077 7.2988 78.9377 7.00442 79.1746 6.62346C79.4115 6.22519 79.53 5.74899 79.53 5.19487C79.53 4.67538 79.4115 4.23382 79.1746 3.87018C78.9546 3.50654 78.6247 3.22948 78.1847 3.039C77.7447 2.8312 77.2032 2.72731 76.5602 2.72731C75.7649 2.72731 75.0034 2.87449 74.2758 3.16887C73.5651 3.44593 72.8036 3.90481 71.9913 4.54551V1.53249C72.4652 1.18616 72.9559 0.900444 73.4635 0.675333C73.9712 0.450221 74.5211 0.285717 75.1134 0.18182C75.7057 0.0606066 76.3402 0 77.0171 0C78.2016 0 79.2254 0.207795 80.0884 0.623385C80.9514 1.03897 81.6198 1.61907 82.0936 2.36367C82.5674 3.10827 82.8043 3.96542 82.8043 4.93513C82.8043 5.55851 82.6943 6.12129 82.4744 6.62346C82.2544 7.12563 81.9667 7.54988 81.6113 7.89621C81.256 8.24253 80.8499 8.51959 80.393 8.72739C79.9361 8.93518 79.4707 9.06505 78.9969 9.117V9.0131C79.5723 9.06505 80.1222 9.20358 80.6468 9.42869C81.1883 9.63649 81.6706 9.93086 82.0936 10.3118C82.5167 10.6928 82.8466 11.1517 83.0835 11.6885C83.3374 12.2253 83.4643 12.84 83.4643 13.5326C83.4643 14.6582 83.1851 15.6452 82.6267 16.4937C82.0682 17.3249 81.2898 17.9743 80.2915 18.4418C79.2931 18.892 78.1255 19.1171 76.7887 19.1171C76.1118 19.1171 75.4603 19.0565 74.8342 18.9353C74.2081 18.8314 73.6243 18.6669 73.0828 18.4418C72.5413 18.1994 72.0421 17.9137 71.5852 17.5846V14.5716C72.3805 15.195 73.1759 15.6539 73.9712 15.9483C74.7665 16.2426 75.6211 16.3898 76.5348 16.3898C77.3132 16.3898 77.9647 16.2686 78.4893 16.0262C79.0139 15.7838 79.4031 15.4461 79.6569 15.0132C79.9276 14.563 80.063 14.0262 80.063 13.4028C80.063 12.7794 79.9361 12.2599 79.6823 11.8443C79.4284 11.4287 79.0477 11.117 78.5401 10.9092C78.0324 10.7014 77.3809 10.5975 76.5856 10.5975H74.3519Z" fill="#21201F"/>
</svg>
