<svg width="50" height="54" viewBox="0 0 50 54" fill="none" xmlns="http://www.w3.org/2000/svg">
<path d="M24.329 53.8808C11.5912 54.8638 1.99994 46.6469 1.01695 33.909C0.0339555 21.1712 8.25093 11.58 20.9888 10.597C26.0591 10.2057 30.7422 11.2438 34.5933 13.5902C40.2734 17.0706 43.7234 23.0868 44.3008 30.5688C45.2838 43.3066 37.0668 52.8978 24.329 53.8808ZM19.6863 13.8698C9.50282 15.3088 3.29267 23.0968 4.10865 33.6704C4.96519 44.7697 12.9912 51.6457 24.0904 50.7891C35.1896 49.9326 42.0656 41.9066 41.2091 30.8074C40.7105 24.3457 37.791 19.1594 32.9624 16.2353C30.0581 14.4689 26.5689 13.5875 22.778 13.6312L24.46 35.4277L10.3309 36.5181L10.0756 33.21L21.113 32.3582L19.6863 13.8698ZM45.1064 18.4393L43.3245 15.9022L47.4263 13.0353L49.2083 15.5725L45.1064 18.4393ZM38.4478 11.1468L35.8598 9.44935L40.8738 1.87805L43.4618 3.5755L38.4478 11.1468ZM28.1512 6.68531L25.0522 6.42684C25.102 5.86317 24.9069 5.34951 24.4359 4.88824C22.7492 3.18343 18.0498 3.54609 16.6448 5.48949C16.281 6.01518 16.167 6.5527 16.3003 7.07113L13.2777 7.802C12.9182 6.36799 13.2389 4.88149 14.14 3.66121C15.3763 1.94854 17.652 0.808784 20.1872 0.613141C22.7533 0.415111 25.146 1.1946 26.6305 2.69731C27.7414 3.79342 28.2864 5.21312 28.1512 6.68531Z" fill="#21201F"/>
</svg>
